<svg t="1588991003809" class="icon" viewBox="0 0 1153 1024" version="1.1" xmlns="http://www.w3.org/2000/svg" p-id="5139" width="200" height="200"><path d="M1086.978404 944.445639A88.831778 88.831778 0 0 1 998.018627 1023.99744H154.948735a88.767778 88.767778 0 0 1-88.959778-79.551801l-65.535836-639.9984A87.99978 87.99978 0 0 1 23.045064 236.15941a89.599776 89.599776 0 0 1 66.367834-29.183927h279.487302V94.911763C368.9002 21.695946 416.132082 0.511999 490.115897 0.511999h179.199552c73.983815 0 114.751713 21.183947 114.751713 94.399764v112.06372h279.487301a89.983775 89.983775 0 0 1 66.367834 29.183927A87.99978 87.99978 0 0 1 1152.77024 304.703238z m-372.927067-825.597936a44.799888 44.799888 0 0 0-44.799888-44.287889h-179.199552a44.799888 44.799888 0 0 0-44.799888 44.287889v88.575778h268.799328V118.847703z m70.015825 155.77561v95.99976c0 24.447939-0.639998 44.223889-25.599936 44.22389a44.799888 44.799888 0 0 1-44.799888-44.22389v-95.99976h-268.799328v95.99976a44.799888 44.799888 0 0 1-44.799888 44.22389c-24.703938 0-31.99992-19.775951-31.99992-44.22389v-95.99976H89.348899L154.948735 954.877613h843.069892l65.535836-680.1903h-279.487301z m15.93596 546.878633H352.77224a44.799888 44.799888 0 0 1-44.799888-44.287889v-25.599936h536.638658v25.599936a44.799888 44.799888 0 0 1-44.543888 44.09589z" p-id="5140"></path></svg>