<svg t="1588846179138" class="icon" viewBox="0 0 1084 1024" version="1.1" xmlns="http://www.w3.org/2000/svg" p-id="3038" width="200" height="200"><path d="M1076.163765 605.424941a35.117176 35.117176 0 0 1-32.225883 28.973177 174.260706 174.260706 0 0 0-144.564706 251.181176 35.177412 35.177412 0 0 1-8.914823 42.164706 540.129882 540.129882 0 0 1-162.213647 93.304471 34.635294 34.635294 0 0 1-12.047059 2.108235 35.117176 35.117176 0 0 1-29.093647-15.480471 174.019765 174.019765 0 0 0-289.551059 0 35.117176 35.117176 0 0 1-41.140706 13.372236 540.009412 540.009412 0 0 1-162.153411-93.304471 35.177412 35.177412 0 0 1-8.914824-42.164706 174.200471 174.200471 0 0 0-144.564706-251.181176 35.056941 35.056941 0 0 1-32.225882-29.033412 515.072 515.072 0 0 1 0-187.090824 35.056941 35.056941 0 0 1 32.225882-28.973176 174.260706 174.260706 0 0 0 144.564706-251.301647 35.117176 35.117176 0 0 1 8.914824-42.164706A541.153882 541.153882 0 0 1 356.412235 2.529882a34.996706 34.996706 0 0 1 41.200941 13.432471 174.08 174.08 0 0 0 289.67153 0 34.936471 34.936471 0 0 1 41.200941-13.432471 538.804706 538.804706 0 0 1 162.093177 93.364706 35.056941 35.056941 0 0 1 8.914823 42.164706 174.320941 174.320941 0 0 0 144.564706 251.301647 35.117176 35.117176 0 0 1 32.165647 28.973177 514.891294 514.891294 0 0 1-0.060235 187.090823z m-65.234824-149.684706A244.374588 244.374588 0 0 1 825.223529 133.421176a468.751059 468.751059 0 0 0-97.159529-55.838117 244.193882 244.193882 0 0 1-371.651765 0 469.835294 469.835294 0 0 0-97.219764 55.838117A244.314353 244.314353 0 0 1 73.487059 455.740235a432.609882 432.609882 0 0 0 0 112.158118 244.374588 244.374588 0 0 1 185.765647 322.198588 470.377412 470.377412 0 0 0 97.28 55.838118 244.073412 244.073412 0 0 1 371.350588 0 470.377412 470.377412 0 0 0 97.28-55.838118 244.254118 244.254118 0 0 1 18.612706-204.016941 244.013176 244.013176 0 0 1 167.092706-118.121412 430.140235 430.140235 0 0 0 0.060235-112.218353zM741.315765 578.258824a35.056941 35.056941 0 0 1-66.56-22.106353A134.083765 134.083765 0 0 0 678.550588 542.117647a139.685647 139.685647 0 1 0-91.678117 102.098824 35.117176 35.117176 0 0 1 22.467764 66.258823 209.859765 209.859765 0 1 1 137.758118-153.660235 204.8 204.8 0 0 1-5.782588 21.443765z" p-id="3039"></path></svg>