<svg t="1588990973121" class="icon" viewBox="0 0 1024 1024" version="1.1" xmlns="http://www.w3.org/2000/svg" p-id="5019" width="200" height="200"><path d="M888.857612 286.838611l19.521891-19.123485a79.681186 79.681186 0 0 0 6.488325-38.246969 63.915694 63.915694 0 0 0-26.010216-31.872475L570.132867 19.109825a120.090931 120.090931 0 0 0-129.994164 0L128.073028 197.595682a17.07454 17.07454 0 0 0-19.521891 19.123485 41.491132 41.491132 0 0 0-6.488325 38.24697 63.858779 63.858779 0 0 0 26.010216 31.872474l318.724745 178.485858a120.090931 120.090931 0 0 0 130.051079 0zM472.751074 407.954014l-292.543784-165.736867 299.089024-165.736868a60.045465 60.045465 0 0 1 64.997082 0l292.543784 165.736868L537.805071 407.954014a60.045465 60.045465 0 0 1-64.997082 0zM391.9885 537.549772L154.026329 390.93639c-12.97665 0-19.521891-6.374495-32.498541-6.374495a64.484846 64.484846 0 0 0-64.997082 63.744949v312.634826a123.050518 123.050518 0 0 0 64.997082 108.138753l238.019086 146.556467a59.134823 59.134823 0 0 0 32.498541 6.43141 60.842277 60.842277 0 0 0 64.997082-63.801864v-312.577911a130.904806 130.904806 0 0 0-64.997082-108.138753z m4.43938 418.610804l-250.426585-146.613383a66.647621 66.647621 0 0 1-32.498541-57.370454V448.306844l20.944769-25.49798-20.944769 25.49798 250.426585 146.613383a66.647621 66.647621 0 0 1 32.498541 57.370454v303.869895z m505.235637-571.598681a59.647059 59.647059 0 0 0-32.498541 6.374495l-236.197803 146.613382a130.904806 130.904806 0 0 0-64.997082 108.138753v314.34228a60.842277 60.842277 0 0 0 64.997082 63.744949 59.647059 59.647059 0 0 0 32.498541-6.374495l236.197803-146.613382a130.904806 130.904806 0 0 0 64.997082-108.138753V448.306844a64.484846 64.484846 0 0 0-64.997082-63.744949z m7.057476 367.614844a66.647621 66.647621 0 0 1-32.498541 57.370454l-250.426585 146.613383v-303.869895a66.647621 66.647621 0 0 1 32.498541-57.370454l250.426585-146.613383v303.869895z m0 0" p-id="5020"></path></svg>