<svg t="1588841866643" class="icon" viewBox="0 0 1134 1024" version="1.1" xmlns="http://www.w3.org/2000/svg" p-id="1417" width="200" height="200"><path d="M784.296931 366.000062L566.249985 637.680603l-217.149116-272.499615h-110.559237v44.103984a37.189109 37.189109 0 0 1 35.550962 15.751422v4.725427c47.71106 63.76176 235.452269 285.746562 288.440055 354.202246 52.972035-69.306261 239.89417-291.291063 288.424304-355.793139a37.173358 37.173358 0 0 1 35.550961-15.751423V362.125212H790.959783a8.379757 8.379757 0 0 0-6.725857 3.87485z m319.438856-67.731119a137.226396 137.226396 0 0 1 0 171.690509l-259.583449 294.331088L651.874719 979.896016a100.809106 100.809106 0 0 1-166.539794 0l-187.75696-208.596093L30.370828 470.652515a132.973512 132.973512 0 0 1 0-169.170281l123.365143-142.408615 102.226735-115.709952A106.841901 106.841901 0 0 1 340.673858 0h454.145024a110.543486 110.543486 0 0 1 81.81289 42.528842c42.355576 43.94647 133.887094 149.638517 189.284849 211.793631z m0 0" fill="rgba(203,228,252,.6)" p-id="1418"></path></svg>