<svg t="1588840688084" class="icon" viewBox="0 0 1024 1024" version="1.1" xmlns="http://www.w3.org/2000/svg" p-id="698" width="200" height="200"><path d="M46.38942 515.233819a62.499156 62.499156 0 0 1-43.60853-27.535489 34.451379 34.451379 0 0 1 7.492214-36.116315L435.472279 30.929398a114.688512 114.688512 0 0 1 160.09005 0l421.805266 417.514852a57.12013 57.12013 0 0 1-9.477331 58.656994 29.776749 29.776749 0 0 1-42.455882 2.689513l-412.39197-409.382277a55.327122 55.327122 0 0 0-79.084485 0L63.551073 506.20474a29.904821 29.904821 0 0 1-17.417797 9.029079z m731.547495 507.741605H577.888388v-319.475705c0-52.253393-14.664249-66.021137-64.03602-66.021137a54.750797 54.750797 0 0 0-67.301858 66.021137v319.475705H250.72836a123.397411 123.397411 0 0 1-119.491213-126.535176v-435.444938a64.420236 64.420236 0 0 1 57.632418-32.978551c17.161653 0 4.674629 14.792321 4.674629 32.978551v435.444938a62.883372 62.883372 0 0 0 16.841474 43.096241 55.647302 55.647302 0 0 0 40.598836 17.86605h132.874742v-253.454568a116.161341 116.161341 0 0 1 129.160653-131.78613 113.792008 113.792008 0 0 1 125.766744 131.78613v253.454568h136.588831a55.455194 55.455194 0 0 0 41.559377-17.033581 62.947408 62.947408 0 0 0 17.54587-43.480458v-435.444938a31.121506 31.121506 0 1 1 62.050904 0v435.444938a123.525483 123.525483 0 0 1-118.658746 126.983428z m0 0" p-id="699"></path></svg>