<svg t="1588842226134" class="icon" viewBox="0 0 1039 1024" version="1.1" xmlns="http://www.w3.org/2000/svg" p-id="2078" width="200" height="200"><path d="M957.290423 0H82.707077A82.995032 82.995032 0 0 0 0.159975 82.707077v86.14654h1039.517575V82.81906A82.771067 82.771067 0 0 0 957.290423 0zM0.159975 257.431776V941.292923a82.899047 82.899047 0 0 0 82.547102 82.707077h874.583346a82.659085 82.659085 0 0 0 82.387127-82.707077V257.463771H0.159975zM375.941259 835.357475c-12.318075 1.103828-26.235901 1.72773-41.753476 1.72773a182.371504 182.371504 0 0 1-3.359475-21.836588c-2.079675-9.998438-3.8394-17.2773-4.959225-21.852585a121.14907 121.14907 0 0 1 16.797375 1.72773h14.877676a14.157788 14.157788 0 0 0 18.397125-16.781378V687.892517l-19.996875 5.071207c-6.71895 1.103828-17.9172 3.951383-33.594751 8.398688l-3.359475-48.632401a109.406905 109.406905 0 0 1 15.03765-3.32748c7.838775-1.119825 21.916576-3.96738 41.753476-8.398688v-80.483424h-50.072176v-41.833464h50.072176v-75.412217h43.513201v75.412217h46.872676v41.833464h-46.872676v72.084736l45.272926-9.998437v43.577191a451.129511 451.129511 0 0 1-16.797375 5.05521 222.365255 222.365255 0 0 0-28.475551 6.65496V790.276519c1.2798 30.123293-13.11795 45.176941-43.353226 45.176941zM725.486643 634.30089h-65.269802v204.400063h-45.112951V634.332885h-80.307452q0 130.715576-51.991876 207.839526a79.411592 79.411592 0 0 0-9.91845-8.382691 217.566005 217.566005 0 0 0-28.475551-23.452335q48.472426-62.006312 45.272926-192.657897v-145.897204q76.788002-1.59975 210.68708-16.781378l15.03765 41.833464q-76.788002 8.3187-180.611779 15.069645v80.467427h190.690205v41.961443z m0 0" fill="rgba(193,221,253,.6)" p-id="2079"></path></svg>