<svg t="1591344599469" class="icon" viewBox="0 0 1199 1024" version="1.1" xmlns="http://www.w3.org/2000/svg" p-id="2303" width="200" height="200"><path d="M819.321512 706.868289a38.347162 38.347162 0 0 0 38.347162 38.415275h303.371686a38.483386 38.483386 0 0 0 0-76.830549h-303.371686a38.415274 38.415274 0 0 0-38.483386 38.415274z m341.718848 99.988693h-441.162643a38.483386 38.483386 0 1 0 0 76.830548h441.230756a38.483386 38.483386 0 0 0 0-76.830548z m0 140.515444H566.761518a38.483386 38.483386 0 1 0 0 76.830548h594.415067a38.483386 38.483386 0 0 0 0-76.830548zM99.443795 647.270125l56.66934 56.66934 220.411042 220.274817 601.226285-601.090061a138.676415 138.676415 0 0 0-10.489277-195.005195L886.48013 47.269859a138.608303 138.608303 0 0 0-194.937083-10.55739L90.316762 638.006867l-88.000948 322.17065a40.390528 40.390528 0 0 0 49.721898 49.721898l322.238762-87.796611-65.932598-66.00071-209.308754 57.146126 57.078013-209.308755-56.66934-56.66934z m655.716036-546.804647a52.650721 52.650721 0 0 1 73.969836 4.018619L909.978835 185.265152a52.650721 52.650721 0 0 1 3.882394 74.037949L821.773551 351.458891 662.935928 192.757493zM599.319144 256.510501l158.769511 158.701398-388.239473 388.239473-158.769511-158.76951 388.239473-388.239473z m0 0" p-id="2304"></path></svg>