<svg t="1591264800874" class="icon" viewBox="0 0 1024 1024" version="1.1" xmlns="http://www.w3.org/2000/svg" p-id="2063" width="200" height="200"><path d="M923.819971 257.249057L703.815535 84.595254v167.714349a4.939454 4.939454 0 0 0 4.882679 4.939454h215.121757z m-284.785097-190.197383H128.681359a63.134176 63.134176 0 0 0-63.020625 63.190952v767.034819a63.134176 63.134176 0 0 0 63.020625 63.190952h765.785762a41.16212 41.16212 0 0 0 33.724551-18.508761 78.06609 78.06609 0 0 0 29.35285-44.682191V322.143269h-238.002218a72.047904 72.047904 0 0 1-80.564205-69.833666V67.051674z m383.290309 817.962298a138.815702 138.815702 0 0 1-138.702152 138.986028H139.525449a138.872477 138.872477 0 0 1-138.702151-138.986028V138.418275A137.680195 137.680195 0 0 1 139.525449 0.794855h570.365047a62.96385 62.96385 0 0 1 43.376359 17.316478l249.357285 209.500998a63.190951 63.190951 0 0 1 19.701043 45.874473v611.527168z m-794.854735-181.113329h570.592149a37.869151 37.869151 0 0 1 37.812375 37.925926 31.737414 31.737414 0 0 1-37.812375 29.693502H227.640774a31.737414 31.737414 0 0 1-37.812376-29.693502 37.869151 37.869151 0 0 1 37.812376-37.925926z m0-192.638722h570.592149a30.885784 30.885784 0 0 1 37.812375 28.387669 37.869151 37.869151 0 0 1-37.812375 37.86915H227.640774a37.869151 37.869151 0 0 1-37.812376-37.86915 30.885784 30.885784 0 0 1 37.812376-28.387669z m0 0"   p-id="2064"></path></svg>