<svg t="1588842018082" class="icon" viewBox="0 0 1024 1024" version="1.1" xmlns="http://www.w3.org/2000/svg" p-id="1598" width="200" height="200"><path d="M987.451234 0H36.549081A36.564677 36.564677 0 0 0 0.000158 36.6592v256h1024V36.6592A36.564677 36.564677 0 0 0 987.451234 0zM145.565696 192.023631a45.764923 45.764923 0 1 1 45.843692-45.796431 45.686154 45.686154 0 0 1-45.843692 45.796431zM0.000158 987.356554A36.564677 36.564677 0 0 0 36.549081 1024h950.744615a36.564677 36.564677 0 0 0 36.548923-36.643446V731.388062H0.000158v255.968492z m145.565538-155.348677a45.686154 45.686154 0 1 1-45.686154 45.686154 45.764923 45.764923 0 0 1 45.686154-45.686154zM0.000158 658.258708h1024V365.7728H0.000158v292.485908z m145.565538-192.039385a45.686154 45.686154 0 1 1-45.686154 45.764923 45.780677 45.780677 0 0 1 45.686154-45.764923z m0 0" fill="rgba(216,221,252,.6)" p-id="1599"></path></svg>