<svg t="1591265574104" class="icon" viewBox="0 0 1100 1024" version="1.1" xmlns="http://www.w3.org/2000/svg" p-id="2183" width="200" height="200"><path d="M931.358862 1023.935799h-26.57906a168.462445 168.462445 0 0 1-168.526645-168.526645v-115.561129a168.462445 168.462445 0 0 1 168.526645-168.526646h26.643261a166.92163 166.92163 0 0 1 79.801379 20.865204v-41.602006a461.281505 461.281505 0 1 0-922.56301 0v41.666207a167.371034 167.371034 0 0 1 79.86558-20.929405h29.596489a168.462445 168.462445 0 0 1 168.526646 168.526646v115.561129a168.462445 168.462445 0 0 1-168.526646 168.526645h-29.596489a168.462445 168.462445 0 0 1-168.526645-168.526645V550.841379a549.942571 549.942571 0 0 1 1099.949341 0v304.567775a168.462445 168.462445 0 0 1-168.590846 168.526645z m77.040752-283.830971a79.544577 79.544577 0 0 0-79.801379-79.86558h-26.771662v-2.953229a79.544577 79.544577 0 0 0-79.865579 79.86558v115.561128a79.544577 79.544577 0 0 0 79.865579 79.86558h26.57906a79.544577 79.544577 0 0 0 79.801379-79.86558v-112.351097zM88.661432 825.812665v26.64326a79.544577 79.544577 0 0 0 79.86558 79.86558h29.596489a79.544577 79.544577 0 0 0 79.80138-79.86558v-112.351097a79.544577 79.544577 0 0 0-79.80138-79.86558h-29.596489v-2.953229a79.544577 79.544577 0 0 0-79.86558 79.86558v88.661066z m662.550471-585.445518a343.665956 343.665956 0 0 1 147.661442 174.497304 42.821818 42.821818 0 0 1-26.643261 56.175549h-14.766144a44.426834 44.426834 0 0 1-41.409404-29.596489 235.5521 235.5521 0 0 0-106.44464-124.164013 43.720627 43.720627 0 0 1 41.602007-76.912351z" p-id="2184"></path></svg>