<svg t="1588846114048" class="icon" viewBox="0 0 1084 1024" version="1.1" xmlns="http://www.w3.org/2000/svg" p-id="2678" width="200" height="200"><path d="M1073.692701 458.972673a39.973443 39.973443 0 0 1-56.383594 5.650381L557.885005 86.348048a25.066054 25.066054 0 0 0-32.098976 0L66.121485 464.623054a39.973443 39.973443 0 0 1-56.383594-5.650381 40.514437 40.514437 0 0 1 5.650382-56.744257L474.812375 23.95341a105.073051 105.073051 0 0 1 133.625511 0l459.424102 378.275006a40.514437 40.514437 0 0 1 5.830713 56.744257zM157.850019 443.223737a40.153775 40.153775 0 0 1 40.093664 40.273996v405.204484a48.088353 48.088353 0 0 0 47.367028 48.088353h291.535639a40.334106 40.334106 0 0 1 0 80.608101h-291.535639a128.155461 128.155461 0 0 1-127.554357-128.696454V483.497733a40.153775 40.153775 0 0 1 40.093665-40.273996z m256.431142 443.194283a63.055853 63.055853 0 0 1-62.755301-63.356405v-84.815833a63.055853 63.055853 0 0 1 62.755301-63.356405h22.361084V580.816537H343.29073a62.214307 62.214307 0 0 1-61.913755-62.394638V396.818476a62.214307 62.214307 0 0 1 61.913755-62.394638h270.496985a61.853644 61.853644 0 0 1 43.820512 18.033133 62.574969 62.574969 0 0 1 18.033132 44.121064V518.361789a62.154196 62.154196 0 0 1-61.973865 62.394638H516.949794V674.648936h22.361084a63.055853 63.055853 0 0 1 62.755301 63.356405v84.815832a63.055853 63.055853 0 0 1-62.755301 63.356405h-125.029717zM595.634362 414.97183H361.504193V500.328656h234.130169V414.97183zM521.75863 755.497479h-90.165662v50.37255h90.165662v-50.37255z m242.184967-47.66758a39.853223 39.853223 0 0 1 56.684146 0 40.454327 40.454327 0 0 1 0 56.984698l-27.049698 27.410362v190.129325a40.093664 40.093664 0 1 1-80.127218 0V862.794617a40.033554 40.033554 0 0 1-42.077309-21.218986 40.454327 40.454327 0 0 1 7.093032-46.886144z m159.172448-98.761455a40.153775 40.153775 0 0 1-40.033553-40.273995V483.497733a40.093664 40.093664 0 1 1 80.127218 0v85.296716a40.153775 40.153775 0 0 1-40.033554 40.273995z m71.531425 30.596215a39.973443 39.973443 0 0 1 27.650803 13.344518l21.038655 23.563293A40.334106 40.334106 0 0 1 1021.8775 743.41528a39.853223 39.853223 0 0 1-38.290351-13.043965l-21.038654-23.503183a40.514437 40.514437 0 0 1 3.005522-56.924588 40.033554 40.033554 0 0 1 29.153564-10.278885z m-152.139526 163.620621l24.044176-6.011044v-42.077309-27.650803a40.153775 40.153775 0 0 1 39.672891-40.694769 40.033554 40.033554 0 0 1 28.49235 11.481094 40.454327 40.454327 0 0 1 12.022088 28.372129v50.552881l64.558614-16.229819a39.853223 39.853223 0 0 1 38.891455 10.819879 40.334106 40.334106 0 0 1-19.475783 67.323694l-81.389537 20.497661 0.480883 6.011044a282.999957 282.999957 0 0 0 9.016567 54.820722 51.153985 51.153985 0 0 0 6.792479 15.809046 19.05501 19.05501 0 0 0 4.508283-3.366185 75.618935 75.618935 0 0 0 18.634237-33.721957 40.213885 40.213885 0 1 1 78.143574 18.814568 155.686043 155.686043 0 0 1-42.077309 73.815622 90.886987 90.886987 0 0 1-45.323273 24.044176 79.345782 79.345782 0 0 1-58.247017-12.382751 105.073051 105.073051 0 0 1-39.49256-60.110441 343.230619 343.230619 0 0 1-11.481094-64.137841l-8.17502 2.103866a39.973443 39.973443 0 0 1-38.891456-10.819879 40.394216 40.394216 0 0 1 19.355562-67.263584z" p-id="2679"></path></svg>