<svg t="1588842165668" class="icon" viewBox="0 0 1024 1024" version="1.1" xmlns="http://www.w3.org/2000/svg" p-id="1958" width="200" height="200"><path d="M909.908624 355.143832a226.213342 226.213342 0 0 1-24.115969 29.102958 391.120353 391.120353 0 0 1-142.458247 88.815207 572.202174 572.202174 0 0 1-63.441523 20.079579A683.319899 683.319899 0 0 1 553.17071 512.007312c-13.513132 0.833602-27.36263 1.169968-41.387623 1.169968s-27.874491-0.336366-41.387624-1.169968A683.319899 683.319899 0 0 1 343.702537 493.141576a608.281067 608.281067 0 0 1-63.441523-20.079579 391.939331 391.939331 0 0 1-142.458247-88.815207 237.503535 237.503535 0 0 1-24.115969-29.102958 171.502706 171.502706 0 0 1-18.295377-32.627486 158.091946 158.091946 0 0 1-14.536854-65.898457c0-141.683143 193.044745-256.603265 431.133264-256.603264s431.118639 114.920122 431.118639 256.603264a159.642154 159.642154 0 0 1-14.536854 65.898457 195.165312 195.165312 0 0 1-18.660992 32.627486zM188.21377 511.875691c13.162142 7.019809 27.026264 13.878747 41.387623 19.904083a532.788872 532.788872 0 0 0 50.630372 19.011983 773.948557 773.948557 0 0 0 463.102643 0 597.502735 597.502735 0 0 0 50.615747-19.011983c14.375984-6.186207 28.225482-12.884274 41.387624-19.904083a437.977578 437.977578 0 0 0 93.597452-66.073951 158.223568 158.223568 0 0 1-0.160871 132.147902 196.657022 196.657022 0 0 1-18.631743 32.612862 227.427184 227.427184 0 0 1-24.115968 29.102958c-74.39535 77.115526-213.943301 128.974364-374.009569 128.974364S212.388237 716.780988 138.007511 639.665462a236.40669 236.40669 0 0 1-24.115968-29.102958 184.123738 184.123738 0 0 1-18.646368-32.612862 158.296691 158.296691 0 0 1-0.175495-132.147902 428.032848 428.032848 0 0 0 93.14409 66.073951z m323.569317 329.857896c174.778617 0 326.128622-55.032377 416.596409-140.396179a159.612905 159.612905 0 0 1 14.536854 66.073952c0 141.858638-193.044745 256.58864-431.133263 256.58864S80.649823 909.079878 80.649823 767.41136a161.060741 161.060741 0 0 1 14.536854-66.073952c90.467787 85.363801 241.817792 140.396178 416.59641 140.396179z" fill="rgba(227,230,253,06)" p-id="1959"></path></svg>