<svg t="1588991087371" class="icon" viewBox="0 0 1024 1024" version="1.1" xmlns="http://www.w3.org/2000/svg" p-id="5499" width="200" height="200"><path d="M975.035592 819.221477h-63.785235V455.248322a401.932886 401.932886 0 0 0-350.872483-396.993288V50.630872a50.147651 50.147651 0 0 0-100.241611 0v7.624162a401.932886 401.932886 0 0 0-350.872483 396.993288v363.973155H45.478545a45.47651 45.47651 0 1 0 0 90.95302h350.979865a113.879195 113.879195 0 0 0 227.597316 0h350.979866a45.47651 45.47651 0 1 0 0-90.95302z m-464.751678 127.302013a41.020134 41.020134 0 0 1-40.805369-36.348993h81.449664a40.805369 40.805369 0 0 1-40.644295 36.348993z m309.852349-127.409396H200.431565V455.248322a304.107383 304.107383 0 0 1 24.375839-119.785235 314.255034 314.255034 0 0 1 165.422819-165.100671 308.510067 308.510067 0 0 1 240.107382 0 314.201342 314.201342 0 0 1 165.422819 165.100671 304.107383 304.107383 0 0 1 24.375839 119.785235v363.865772z m0 0l-118.496644-372.832215a41.073826 41.073826 0 0 0-41.020135 40.912752v191.033557a41.020134 41.020134 0 0 0 82.040269 0V487.194631a41.073826 41.073826 0 0 0-41.020134-40.912752z m0 0" p-id="5500"></path></svg>