<svg t="1588991059331" class="icon" viewBox="0 0 1024 1024" version="1.1" xmlns="http://www.w3.org/2000/svg" p-id="5379" width="200" height="200"><path d="M1018.803616 448.25201a494.082414 494.082414 0 0 1-13.62986 195.418114 510.608618 510.608618 0 0 1-239.487993 311.499085 487.721812 487.721812 0 0 1-168.49914 61.163995 513.164217 513.164217 0 0 1-83.426099 6.81493 485.109423 485.109423 0 0 1-90.24103-8.518663 34.699351 34.699351 0 0 1-22.148522-14.140979 34.074649 34.074649 0 0 1-5.679108-25.499196 34.074649 34.074649 0 0 1 14.197771-22.091731 34.074649 34.074649 0 0 1 25.555986-5.679108 428.886251 428.886251 0 0 0 295.597582-52.077422h0.567911a442.97044 442.97044 0 0 0 207.684987-269.587266 448.990294 448.990294 0 0 0 11.926127-169.351007 433.486329 433.486329 0 0 0-56.16638-165.943542 440.187677 440.187677 0 0 0-104.949919-122.895901 34.074649 34.074649 0 0 1-4.20254-5.111198 40.662415 40.662415 0 0 1-19.649715-14.19777 34.472187 34.472187 0 0 1-5.679108-26.578227v-2.839554a37.368532 37.368532 0 0 1 43.104431-28.395541l147.656814 28.395541a41.059952 41.059952 0 0 1 23.284343 15.844712 34.585769 34.585769 0 0 1 5.679108 26.635018v2.839554a37.482114 37.482114 0 0 1-35.72159 29.474571 31.348677 31.348677 0 0 1-7.382841-1.135821l-33.222783-6.417393a544.115357 544.115357 0 0 1 49.692197 70.364151 504.588764 504.588764 0 0 1 65.139371 192.010648z m-346.141645 43.047641h-124.94038v73.090122h7.38284v6.190228h117.500749a29.190616 29.190616 0 0 1 30.042482 30.042483v6.247019a28.84987 28.84987 0 0 1-30.042482 29.985691H555.218013v6.247019h-7.38284V721.246742a29.133825 29.133825 0 0 1-30.042483 29.985691h-8.518662a31.916588 31.916588 0 0 1-27.82763-31.689424v-76.440796h-5.111198v-6.247019H353.780045a29.190616 29.190616 0 0 1-30.099273-30.042483v-6.190227a29.247407 29.247407 0 0 1 30.099273-30.042483h122.555155v-6.190228h5.111198V491.299651H353.780045a35.437635 35.437635 0 0 1-36.289501-36.232711v-6.247019a35.437635 35.437635 0 0 1 36.289501-36.23271h122.952693L384.44723 314.111475a39.299429 39.299429 0 1 1 57.870112-53.270035l72.862959 77.406245 75.248183-70.591315a39.753757 39.753757 0 0 1 55.59847 2.271643l0.56791 0.567911a39.242638 39.242638 0 0 1-2.839554 53.213244L548.970994 412.644002h123.747768a35.437635 35.437635 0 0 1 36.289502 36.23271v6.247019a35.437635 35.437635 0 0 1-36.346293 36.17592z m-135.049193-422.525651h-1.703732a445.753203 445.753203 0 0 0-244.201653 58.324442 447.968055 447.968055 0 0 0-207.117076 270.155177 437.916033 437.916033 0 0 0-11.358217 169.407797 433.032 433.032 0 0 0 56.16638 165.886751 1.930897 1.930897 0 0 1 0.567911 1.135822 364.428373 364.428373 0 0 0 75.475348 96.885586 15.276801 15.276801 0 0 1 0.908658 1.249403l5.338361 1.02224a41.003161 41.003161 0 0 1 23.284344 15.844712 34.585769 34.585769 0 0 1 5.679108 26.635017v2.782763a39.413011 39.413011 0 0 1-36.289501 29.474572 33.05241 33.05241 0 0 1-7.382841-1.135822l-147.656813-28.395541a36.687039 36.687039 0 0 1-28.395541-42.422938v-2.271643a34.699351 34.699351 0 0 1 14.765681-23.227553 36.289501 36.289501 0 0 1 28.395541-5.679108l34.756142 6.701348a418.663857 418.663857 0 0 1-29.077034-44.637791 501.294881 501.294881 0 0 1-64.685042-191.442737 516.060562 516.060562 0 0 1 13.62986-195.418114A510.495036 510.495036 0 0 1 258.200654 68.149298 514.754367 514.754367 0 0 1 539.089346 0.738284a34.074649 34.074649 0 0 1-1.476568 68.035716z" p-id="5380"></path></svg>