<svg t="1588842113139" class="icon" viewBox="0 0 1024 1024" version="1.1" xmlns="http://www.w3.org/2000/svg" p-id="1838" width="200" height="200"><path d="M904.877539 934.061265c7.53756 18.260806 15.07512 26.267686 22.61268 24.177079 8.533087 1.038192 14.022706-8.00688 16.127534-27.334321a381.329428 381.329428 0 0 0 8.063767-53.061578 162.498417 162.498417 0 0 1 19.455438 6.44248c18.403024 6.428259 31.373316 10.780133 38.555331 12.700078a77.451985 77.451985 0 0 0-3.313682 14.435138c-3.157242 13.923153-6.314484 31.671974-9.65661 53.0758Q982.258415 1025.564399 932.055421 1024a91.744905 91.744905 0 0 1-84.150458-53.0758q-24.177079-40.190839-34.004351-141.450136l-69.587323 7.992658-8.063767-65.946539 72.915227-7.992658q-6.570477-69.174891-8.063767-122.16536H867.545284c0 11.846769 1.223076 29.595589 3.327904 53.0758 1.223076 25.7557 2.27549 46.107112 3.327904 61.153789l124.625733-14.44936 6.485146 64.38214-126.375016 14.435138q8.149098 81.931855 25.940584 114.101593z m-24.361963-247.615958l42.068118-40.190839a749.617455 749.617455 0 0 1 64.85146 51.511401l-45.396022 45.054698a756.842136 756.842136 0 0 0-61.523556-56.37526z m-364.078371 145.304247a294.391495 294.391495 0 0 0 46.107113 158.160764l-4.380318 5.57495H142.389344a127.612313 127.612313 0 0 1-128.13852-127.199881V127.201019a127.612313 127.612313 0 0 1 128.13852-127.199881h632.785275a127.598092 127.598092 0 0 1 128.124299 127.199881v419.699875a299.952224 299.952224 0 0 0-386.861713 284.84866z m65.036344-587.972348s-123.402657 34.459449-146.356661-82.998491h-71.52149s-19.810983 117.628602-145.844675 82.82783c-36.464724 60.385811-37.673578 62.291534-37.673579 62.291533s98.685149 68.392691 0 161.303785l38.398891 62.476417s108.853744-46.818203 144.607378 80.737224h72.38902s22.61268-117.102395 145.318469-82.486506c34.886103-59.148513 35.398088-59.731608 35.398088-59.731608s-92.541327-79.357707 0.540429-164.261921c-35.782077-59.105848-35.25587-60.158262-35.25587-60.158263z m-183.703138 224.70462a82.827829 82.827829 0 1 1 83.439367-82.827829 83.126487 83.126487 0 0 1-83.439367 82.770942z m362.855295 194.013951a1038.007346 1038.007346 0 0 1-32.439951 78.817278V1022.577819h-64.85146V847.365103a1271.373049 1271.373049 0 0 1-37.161593 48.197719 443.962286 443.962286 0 0 1-6.485146-45.068921c-3.157242-17.222614-5.432732-30.107575-6.485146-38.626439a567.663601 567.663601 0 0 0 80.978994-170.348857z" fill="rgba(227,240,252,.6)" p-id="1839"></path></svg>