<svg t="1591344007360" class="icon" viewBox="0 0 1134 1024" version="1.1" xmlns="http://www.w3.org/2000/svg" p-id="2063" width="200" height="200"><path d="M926.528395 931.055192a234.370913 234.370913 0 1 1 59.865028-89.529688l122.006801 82.967303a53.771384 53.771384 0 0 1-60.266807 88.993983zM58.418534 108.279362a53.838347 53.838347 0 0 1 0-107.609731h1019.580434a53.838347 53.838347 0 1 1 0 107.609731H58.418534z m0 609.364373a53.771384 53.771384 0 1 1 0-107.542767h306.89197a53.771384 53.771384 0 1 1 0 107.542767H58.418534z m0-304.414334a53.771384 53.771384 0 1 1 0-107.542767h1019.580434a53.771384 53.771384 0 1 1 0 107.542767H58.418534z m0 610.100968a53.838347 53.838347 0 0 1 0-107.609731h306.89197a53.838347 53.838347 0 0 1 0 107.609731H58.418534z m706.996599-136.269945a127.765629 127.765629 0 1 0-127.765629-127.765629 127.765629 127.765629 0 0 0 127.765629 127.765629z m0 0" p-id="2064"></path></svg>