<svg t="1591344547541" class="icon" viewBox="0 0 1024 1024" version="1.1" xmlns="http://www.w3.org/2000/svg" p-id="2183" width="200" height="200"><path d="M912.508537 188.635437L576.94767 15.599763a141.946783 141.946783 0 0 0-130.717167 0l-335.560867 174.80586A136.248997 136.248997 0 0 0 34.717596 314.042045v393.700412a142.997831 142.997831 0 0 0 75.95204 125.406608l337.44169 174.805859a137.189408 137.189408 0 0 0 65.330924 15.931673 142.444648 142.444648 0 0 0 65.330924-15.931673l333.735363-172.980355a139.623414 139.623414 0 0 0 75.95204-125.406608V313.986727a140.951054 140.951054 0 0 0-75.95204-125.406609zM479.808717 77.113724a71.913803 71.913803 0 0 1 31.808029-8.85093 64.556468 64.556468 0 0 1 31.808028 7.080744l335.560867 173.090992a61.513961 61.513961 0 0 1 14.106169 8.795611l-381.696338 197.818276-381.696338-194.277904a38.390907 38.390907 0 0 1 14.106169-8.85093z m-335.560867 692.58524a70.420208 70.420208 0 0 1-38.722817-63.616057V326.378028l141.282963 72.411668v158.929504a33.190986 33.190986 0 0 0 19.416727 31.808028l24.727284 12.391302a10.565797 10.565797 0 0 0 7.080744 1.770186 16.595493 16.595493 0 0 0 17.646541-17.70186V434.138096l158.929504 81.207279v425.619076z m734.682473 0l-331.909859 173.035673V515.345375l370.632676-188.967347v379.704879a70.420208 70.420208 0 0 1-38.722817 63.616057z m0 0" p-id="2184"></path></svg>