<svg t="1588990892362" class="icon" viewBox="0 0 1024 1024" version="1.1" xmlns="http://www.w3.org/2000/svg" p-id="4899" width="200" height="200"><path d="M1006.622576 507.996191a29.728878 29.728878 0 0 1-42.387626 2.685189l-411.728971-408.724117a55.238173 55.238173 0 0 0-78.957342 0L63.801591 507.101129a29.856744 29.856744 0 0 1-17.389795 9.014562 62.398676 62.398676 0 0 1-43.53842-27.49122 34.395992 34.395992 0 0 1 7.480169-36.058251L434.86913 32.589882a114.504128 114.504128 0 0 1 159.832675 0l421.127133 416.843617a57.028299 57.028299 0 0 1-9.206362 58.562692zM188.662877 429.102783c17.134063 0 4.667114 14.768539 4.667114 32.925531V896.773191a62.782275 62.782275 0 0 0 16.814398 43.026956 55.557838 55.557838 0 0 0 40.533566 17.837326h132.916853v-253.047091a115.974589 115.974589 0 0 1 128.953002-131.574258 113.609066 113.609066 0 0 1 125.56455 131.574258v253.047091h136.369238a55.366039 55.366039 0 0 0 41.492563-17.006196 62.846208 62.846208 0 0 0 17.517661-43.410555v-434.744876a31.071472 31.071472 0 1 1 61.951145 0v434.744876a123.326892 123.326892 0 0 1-118.467979 126.779278H577.31201v-318.962087c0-52.169385-14.640673-65.914995-63.93307-65.914995a54.662775 54.662775 0 0 0-67.193657 65.914995v318.003091H250.677955a123.199026 123.199026 0 0 1-119.299109-126.331747v-434.744876a64.316668 64.316668 0 0 1 57.284031-32.861598z" p-id="4900"></path></svg>