<svg t="1588842067497" class="icon" viewBox="0 0 1219 1024" version="1.1" xmlns="http://www.w3.org/2000/svg" p-id="1718" width="200" height="200"><path d="M378.554921 522.061206c-85.170794-42.796698-141.897143-137.216-141.897143-248.376889C236.657778 122.603683 346.046984 0.146286 480.954921 0.146286s244.297143 122.457397 244.297142 273.538031c0 110.83581-56.726349 205.108825-141.409523 248.084318C793.35619 572.806095 951.832381 776.289524 962.234921 1023.187302l-962.234921 0.715174C13.165714 780.222984 170.991746 574.041397 378.554921 522.061206zM683.966984 31.792762a365.080381 365.080381 0 0 1 12.515556 468.114286c152.299683 73.337905 267.377778 224.938667 304.924444 409.6l217.640635-0.16254c-9.264762-219.428571-150.186667-400.270222-336.294603-445.651302 75.255873-38.180571 125.480635-121.904762 125.480635-220.485079C1008.233651 108.966603 911.034921 0.113778 791.243175 0.113778a198.81854 198.81854 0 0 0-109.551746 33.158095" fill="rgba(189,219,253,.6)" p-id="1719"></path></svg>