<svg t="1588846001275" class="icon" viewBox="0 0 1024 1024" version="1.1" xmlns="http://www.w3.org/2000/svg" p-id="2558" width="200" height="200"><path d="M1015.216955 820.502881v1.361184a32.328138 32.328138 0 0 1-28.868459 30.229645v1.361185h-2.835802a60.969733 60.969733 0 0 0-60.459289 60.459289 52.462329 52.462329 0 0 0 5.671603 23.367005 36.29826 36.29826 0 0 1-12.364095 45.372824l-67.321928 37.092285a36.184828 36.184828 0 0 1-16.504366 4.14027 40.43853 40.43853 0 0 1-30.229644-12.364095 89.894909 89.894909 0 0 0-49.456379-30.229644 85.074047 85.074047 0 0 0-49.456379 28.868459 40.551962 40.551962 0 0 1-45.372825 9.58501l-65.960744-37.092285a39.190777 39.190777 0 0 1-13.72528-46.734009 83.145701 83.145701 0 0 0 5.671604-23.310289 60.969733 60.969733 0 0 0-60.45929-60.459289h-3.005949a32.271422 32.271422 0 0 1-30.229645-30.229645 250.457993 250.457993 0 0 1 0-104.414213 32.271422 32.271422 0 0 1 28.811744-30.229644H521.787485A61.026449 61.026449 0 0 0 582.360207 626.987783a68.059237 68.059237 0 0 0-5.671603-23.367005 38.056457 38.056457 0 0 1 12.364094-45.372825l68.683114-38.453469h1.361185a43.047468 43.047468 0 0 1 45.372824 9.641725 91.085946 91.085946 0 0 0 48.095195 27.450559 92.900859 92.900859 0 0 0 48.095194-27.450559 43.047468 43.047468 0 0 1 45.372825-9.641725l67.321929 37.092284a39.190777 39.190777 0 0 1 13.725279 46.73401 80.02632 80.02632 0 0 0-5.671603 23.367005 61.026449 61.026449 0 0 0 60.459289 60.459289h2.72237a33.519174 33.519174 0 0 1 30.229644 30.229644 281.992106 281.992106 0 0 1 5.671603 52.178749 373.361632 373.361632 0 0 1-5.274591 50.647416z m-42.593739-86.60538v-2.722369H969.844131A105.378386 105.378386 0 0 1 877.737296 626.987783a85.641207 85.641207 0 0 1 5.671603-31.647546l1.361185-2.722369-52.235465-28.86846-1.361184 1.417901a138.103536 138.103536 0 0 1-19.226735 15.086464 105.718682 105.718682 0 0 1-57.680203 20.587919 108.611199 108.611199 0 0 1-57.680204-21.949104 148.085557 148.085557 0 0 1-19.226734-16.504365l-1.361185-1.361184-54.957834 30.229644 1.361185 5.671603a93.411303 93.411303 0 0 1 5.671603 31.59083 106.399274 106.399274 0 0 1-92.050119 104.414213H533.130692v2.722369c-1.361185 13.781996-2.722369 26.14609-2.72237 35.7311a291.860696 291.860696 0 0 0 2.72237 35.731099v2.779086h2.779085a105.32167 105.32167 0 0 1 92.050119 104.414213 100.330659 100.330659 0 0 1-5.671604 31.590829l-1.361184 2.72237 52.235464 26.14609 1.361185-1.361185a239.455083 239.455083 0 0 1 19.226735-16.504365 112.241025 112.241025 0 0 1 59.098104-22.00582 104.470929 104.470929 0 0 1 59.098104 23.367005 148.085557 148.085557 0 0 1 19.226735 16.504365l1.361184 1.361185 52.235465-28.86846-1.361185-2.722369a93.411303 93.411303 0 0 1-5.671603-31.59083 106.45599 106.45599 0 0 1 92.050119-104.470929h2.722369v-2.722369a232.989455 232.989455 0 0 0 0-71.859212z m-221.192521 133.282673a97.551573 97.551573 0 1 1 97.551573-97.551573 97.89187 97.89187 0 0 1-97.665005 97.551573z m0-148.369137a52.745909 52.745909 0 0 0-52.178748 51.044428 52.178749 52.178749 0 0 0 52.178748 52.235465 51.611588 51.611588 0 1 0-0.113432-103.279893z m-149.730322-256.923621l-16.447649 12.364095a259.986286 259.986286 0 0 1-137.366227 42.59374h-42.763887a379.203383 379.203383 0 0 0-344.833469 377.842198v57.680204a3.629826 3.629826 0 0 0 4.14027 4.14027h416.238952a320.842588 320.842588 0 0 0 35.7311 59.041388H30.116212A29.265472 29.265472 0 0 1 0 986.737568v-90.74565a437.223883 437.223883 0 0 1 278.872725-406.710659l19.226734-8.223824a2.949234 2.949234 0 0 0 2.72237-2.779086 4.934295 4.934295 0 0 0-1.361185-4.083554l-16.504365-12.364095a258.284805 258.284805 0 1 1 318.630662 0.056716z m-159.372047-399.848018a197.882232 197.882232 0 1 0 199.186701 197.825516A199.073269 199.073269 0 0 0 442.385042 62.039398z" p-id="2559"></path></svg>