<svg t="1588842268431" class="icon" viewBox="0 0 1024 1024" version="1.1" xmlns="http://www.w3.org/2000/svg" p-id="2198" width="200" height="200"><path d="M344.133385 256.167184l358.115445-1.023577c16.513708-1.95162 77.382415-72.646666 91.439539-147.244952 13.511215-70.585865-27.158908-93.009023-128.834215-93.009023-102.084738 0-80.930815 99.068598-101.538831 99.068599-11.873492 0-22.655169-76.072237-69.1938-108.335382-33.163892-22.996362-79.156615 36.275566-123.238661 36.72594-51.315323 0.464022-118.325492-6.073223-118.325492 69.603231 0 62.465488 74.106969 144.256107 91.576015 144.256107z m-18.014954 0c-13.238262 0-24.156415 5.827565-24.156415 12.815183s10.781677 12.815183 24.156415 12.815183h371.763138c13.374738 0 24.156415-5.718383 24.156415-12.815183s-10.781677-12.815183-24.156415-12.815183H326.118431z m399.740907 51.137903H306.465754A507.598619 507.598619 0 0 0 54.938785 746.965494c0 225.364343 215.906492 276.857086 462.383815 276.857086s451.738615-54.003918 451.738615-279.49109a504.732604 504.732604 0 0 0-243.201877-437.026403zM585.834015 572.261385a27.418214 27.418214 0 1 1 0 54.686303h-59.094507v27.295385h59.094507a27.418214 27.418214 0 1 1 0 54.686303h-59.094507v57.429489a29.560901 29.560901 0 0 1-58.958031 0v-57.552318h-59.094508a27.418214 27.418214 0 1 1 0-54.686303h59.094508v-27.295385h-59.094508a27.418214 27.418214 0 1 1 0-54.686303h59.094508v-15.899561l-82.841492-74.134265a25.930615 25.930615 0 0 1-2.866016-36.384748 19.106769 19.106769 0 0 1 2.183631-2.279164 31.307806 31.307806 0 0 1 41.761939-0.696033l73.561061 65.904707 73.561061-65.904707a31.485226 31.485226 0 0 1 41.898416 0.696033 26.039797 26.039797 0 0 1-0.682385 38.663912l-87.34523 78.133038v11.900788z m0 0" fill="rgba(253,223,217,.6)" p-id="2199"></path></svg>