<?xml version="1.0" standalone="no"?><!DOCTYPE svg PUBLIC "-//W3C//DTD SVG 1.1//EN" "http://www.w3.org/Graphics/SVG/1.1/DTD/svg11.dtd"><svg t="1586402083028" class="icon" viewBox="0 0 1024 1024" version="1.1" xmlns="http://www.w3.org/2000/svg" p-id="1172" xmlns:xlink="http://www.w3.org/1999/xlink" width="200" height="200"><defs><style type="text/css"></style></defs><path d="M929.984 394.688a318.976 318.976 0 0 0-182.656-91.072V195.008h-0.128l0.064-2.368c0-34.24-35.968-63.296-103.936-83.968-60.544-18.432-140.8-28.544-225.792-28.544s-165.184 10.176-225.728 28.608c-67.968 20.608-103.936 49.664-103.936 83.904 0 2.432 0.192 4.736 0.576 7.104h-0.128v78.4a317.824 317.824 0 0 0-32.064 15.36C19.072 314.368 0.32 338.112 0.448 363.968c0 2.368 0.192 4.672 0.64 7.04H0.96V491.52H0.64c0 17.024 7.552 32.832 22.464 46.976 14.912 14.144 37.12 26.24 64.064 36.224v101.056h-0.256c0 17.472 8.128 33.984 24.256 49.152 53.056 49.472 189.696 77.632 301.76 77.632 7.744 0 15.36-0.128 22.784-0.384 11.456 16.896 24.576 32.768 39.232 47.488a320 320 0 0 0 227.52 94.272c85.952 0 166.72-33.472 227.52-94.272s94.208-141.504 94.208-227.52a319.296 319.296 0 0 0-94.208-227.456zM123.776 300.48v-53.824c16.896 11.264 39.68 21.376 68.032 30.016 60.544 18.368 140.736 28.544 225.728 28.544s165.248-10.176 225.792-28.544c28.672-8.704 51.712-18.944 68.608-30.4v54.4l-9.408-0.192a319.616 319.616 0 0 0-243.392 111.232c-142.336 6.208-285.312-31.488-325.568-69.76-5.888-5.568-9.088-10.752-9.088-14.656h-0.704V302.72a8.064 8.064 0 0 1 0.64-0.192l-0.64-2.048z m78.4-157.888c57.28-17.344 133.76-26.944 215.36-26.944s158.144 9.6 215.488 26.944c58.176 17.664 78.784 38.016 78.784 50.048s-20.608 32.384-78.784 50.048c-57.344 17.408-133.888 27.008-215.488 27.008s-158.144-9.6-215.36-27.008c-58.24-17.6-78.848-38.016-78.848-50.048s20.608-32.384 78.848-50.048zM88.32 316.8v10.496h0.704c0 14.08 6.72 27.648 20.096 40.32 48.768 46.4 185.792 80 318.016 80.128-106.24 12.8-188.992 3.136-240.064-7.36-59.968-12.352-111.168-33.28-137.024-56.064-10.432-9.152-14.144-16.512-14.144-20.48-0.064-15.36 23.296-33.152 52.416-47.04zM47.552 512.768c-6.592-6.272-10.24-12.16-11.2-18.176V418.752c32 23.68 83.392 43.968 143.616 56.32 45.888 9.472 95.552 14.208 146.944 14.208 27.712 0 55.872-1.344 84.288-4.096-13.44 28.544-22.528 58.944-27.072 90.56A929.152 929.152 0 0 1 182.144 563.2c-65.024-11.776-112.832-29.696-134.592-50.432z m334.016 131.264c-89.152 2.24-172.992-22.4-220.032-48.768a938.688 938.688 0 0 0 219.456 16c-0.064 3.648-0.192 7.232-0.192 10.88 0 7.36 0.32 14.592 0.768 21.888z m-246.272 54.848c-8.192-7.616-12.544-14.976-12.992-22.016h0.256V612.352c26.496 19.52 67.008 37.376 113.728 49.728 32.64 8.64 79.424 17.472 133.568 17.472 5.248 0 10.56-0.128 15.936-0.256 5.44 30.656 15.296 60.096 29.248 87.744-111.616 0.576-237.888-29.184-279.744-68.16z m567.232 209.472A286.592 286.592 0 0 1 416.256 622.08a286.656 286.656 0 0 1 286.272-286.272 286.592 286.592 0 0 1 286.336 286.272 286.656 286.656 0 0 1-286.336 286.272z m93.824-466.176l-56.96 104.96c-15.168 28.48-24.512 47.424-27.904 56.768h-0.96c-10.048-22.72-38.4-76.672-84.928-161.728h-53.504l99.584 171.2H590.016v37.76h95.808v52.096H590.016v38.272h95.808v75.904h47.488v-75.904h92.288v-38.272h-92.288v-52.096h92.288v-37.76h-79.232l100.544-171.2h-50.56z m0 0" fill="#707070" p-id="1173"></path></svg>